g Eyelashes
v -0.05305292 1.578441 0.09835146
v -0.05007507 1.58067 0.102648
v -0.04602017 1.580718 0.09719609
v -0.04806483 1.578495 0.09370978
v -0.04916448 1.576583 0.09138621
v -0.05464398 1.576668 0.09515961
v -0.05725873 1.580063 0.1002552
v -0.05929377 1.577844 0.09675051
v -0.05371969 1.582702 0.1048916
v -0.05024793 1.584782 0.1082391
v -0.04707783 1.58263 0.105523
v -0.04514092 1.586663 0.1120275
v -0.04260563 1.584487 0.1089178
v -0.03907724 1.587807 0.1145724
v -0.03799699 1.5855 0.1109433
v -0.04378364 1.582781 0.1004704
v -0.04051064 1.584572 0.1030992
v -0.03656089 1.585526 0.1046979
v -0.03247825 1.585317 0.1115
v -0.03253975 1.585367 0.1053826
v -0.0324024 1.587464 0.1153058
v -0.02694337 1.585769 0.115026
v -0.02801415 1.58399 0.1114577
v -0.02866767 1.584104 0.105161
v -0.02414296 1.581636 0.1106031
v -0.02523305 1.581854 0.1040893
v -0.02016154 1.578539 0.1095502
v -0.0177082 1.579566 0.1125807
v -0.02236128 1.583174 0.114118
v -0.02232304 1.579158 0.1026508
v -0.04410131 1.575614 0.09731759
v -0.04076452 1.574587 0.09993037
v -0.04337352 1.572538 0.1046079
v -0.04769962 1.573959 0.1010299
v -0.05032812 1.575546 0.0975671
v -0.04638855 1.576509 0.09427951
v -0.05118213 1.576669 0.094919
v -0.03806262 1.571522 0.1067899
v -0.03676654 1.574016 0.101681
v -0.0325085 1.571554 0.1079241
v -0.03254435 1.574237 0.1028123
v -0.02895129 1.574862 0.1028342
v -0.02759111 1.571844 0.1076828
v -0.02418448 1.572152 0.1065661
v -0.02630794 1.575233 0.1020122
v -0.02206841 1.57262 0.1062491
v -0.02444877 1.575258 0.1013941
v -0.02005096 1.57292 0.1059309
v -0.02269322 1.575023 0.1010453
v 0.05308314 1.57844 0.09835272
v 0.04818342 1.578449 0.09360178
v 0.04607718 1.580719 0.09716205
v 0.05010649 1.580669 0.1026482
v 0.04926641 1.57659 0.0912779
v 0.05467303 1.576667 0.09516219
v 0.05729059 1.580063 0.1002551
v 0.05932543 1.577844 0.09675068
v 0.05375155 1.5827 0.1048913
v 0.04699593 1.582671 0.1056228
v 0.04375658 1.582829 0.1005133
v 0.0426347 1.584488 0.1089189
v 0.04516857 1.586664 0.1120293
v 0.05016222 1.584816 0.1083409
v 0.03910498 1.587807 0.1145732
v 0.03811069 1.585553 0.1110766
v 0.04051614 1.584579 0.1031114
v 0.03658195 1.585523 0.1046977
v 0.03246654 1.585387 0.1117206
v 0.03253476 1.585372 0.1053824
v 0.03243086 1.587463 0.1153063
v 0.02697472 1.585768 0.1150254
v 0.0280452 1.58399 0.1114577
v 0.02865958 1.584108 0.1051588
v 0.02417442 1.581636 0.110603
v 0.02525331 1.581882 0.1040926
v 0.02019371 1.578539 0.1095502
v 0.01774036 1.579566 0.1125807
v 0.02239278 1.583174 0.114118
v 0.02233592 1.579165 0.1026207
v 0.0441642 1.575603 0.09726457
v 0.04772178 1.57396 0.101039
v 0.04339662 1.57254 0.1046153
v 0.04082981 1.574592 0.09992448
v 0.05034784 1.575542 0.0975804
v 0.04649328 1.576483 0.09420035
v 0.05120191 1.576665 0.09493359
v 0.03808682 1.571525 0.1067961
v 0.03678241 1.574025 0.1016797
v 0.03253505 1.571559 0.1079292
v 0.03253945 1.574229 0.1027981
v 0.02896617 1.574849 0.1028622
v 0.02761923 1.571849 0.1076874
v 0.02421439 1.572156 0.1065703
v 0.02629895 1.575212 0.1020068
v 0.02209886 1.572624 0.1062531
v 0.02443218 1.575242 0.1013502
v 0.02008198 1.572923 0.1059346
v 0.02268603 1.575009 0.101014
vt 0.583119 0.686618
vt 0.584284 0.674309
vt 0.573381 0.672524
vt 0.571148 0.685095
vt 0.569563 0.693488
vt 0.580536 0.695102
vt 0.592035 0.68717
vt 0.589518 0.696159
vt 0.594133 0.675579
vt 0.595237 0.669096
vt 0.584803 0.667896
vt 0.59634 0.662612
vt 0.585321 0.661483
vt 0.59545 0.649102
vt 0.585605 0.649671
vt 0.57402 0.666416
vt 0.574659 0.660308
vt 0.576275 0.648906
vt 0.584965 0.637768
vt 0.576062 0.638748
vt 0.593658 0.636493
vt 0.591525 0.625134
vt 0.58278 0.626313
vt 0.574914 0.628722
vt 0.581045 0.617351
vt 0.573313 0.621497
vt 0.579343 0.606872
vt 0.586978 0.603773
vt 0.589297 0.615552
vt 0.57113 0.612695
vt 0.554823 0.629698
vt 0.555852 0.641334
vt 0.568444 0.64097
vt 0.567813 0.625959
vt 0.565499 0.609283
vt 0.551678 0.614218
vt 0.562092 0.60265
vt 0.569003 0.653265
vt 0.557315 0.652701
vt 0.568962 0.665289
vt 0.556769 0.663255
vt 0.555791 0.672737
vt 0.567726 0.676229
vt 0.565674 0.685228
vt 0.553936 0.680915
vt 0.56486 0.690493
vt 0.5534 0.68477
vt 0.564045 0.695757
vt 0.552863 0.688624
vt 0.516799 0.686618
vt 0.528771 0.685095
vt 0.526537 0.672524
vt 0.515634 0.674309
vt 0.530355 0.693488
vt 0.519382 0.695102
vt 0.507883 0.68717
vt 0.5104 0.696159
vt 0.505785 0.675579
vt 0.515098 0.667684
vt 0.525877 0.666214
vt 0.514597 0.661483
vt 0.503578 0.662612
vt 0.504645 0.668881
vt 0.504468 0.649102
vt 0.514313 0.649671
vt 0.525259 0.660308
vt 0.523643 0.648906
vt 0.514953 0.637768
vt 0.523856 0.638748
vt 0.50626 0.636493
vt 0.508394 0.625134
vt 0.517138 0.626313
vt 0.525004 0.628722
vt 0.518873 0.617351
vt 0.526605 0.621497
vt 0.520575 0.606872
vt 0.51294 0.603773
vt 0.510621 0.615552
vt 0.528788 0.612695
vt 0.545095 0.629698
vt 0.532105 0.625959
vt 0.531475 0.64097
vt 0.544066 0.641334
vt 0.53442 0.609283
vt 0.54824 0.614218
vt 0.537826 0.60265
vt 0.530915 0.653265
vt 0.542603 0.652701
vt 0.530956 0.665289
vt 0.543149 0.663255
vt 0.544127 0.672737
vt 0.532193 0.676229
vt 0.534244 0.685228
vt 0.545982 0.680915
vt 0.535058 0.690493
vt 0.546519 0.68477
vt 0.535873 0.695757
vt 0.547056 0.688624
vn 0.128732 -0.8809757 0.4553129
vn 0.1430829 -0.8894567 0.4340439
vn 0.3617108 -0.8913355 0.2732878
vn 0.3329009 -0.8746889 0.352273
vn 0.3267309 -0.8517577 0.4095799
vn 0.1380839 -0.8655615 0.4813898
vn -0.08185397 -0.8412457 0.5344208
vn -0.05622099 -0.8439327 0.5334948
vn -0.086187 -0.82203 0.562884
vn -0.072657 -0.8208759 0.566466
vn 0.148671 -0.9047198 0.3992229
vn -0.06867899 -0.8407028 0.5371239
vn 0.103095 -0.9380283 0.3308691
vn -0.07362404 -0.8525984 0.5173542
vn 0.005642998 -0.9599236 0.2802049
vn 0.3578131 -0.9125324 0.1981271
vn 0.2669179 -0.9588316 0.09693696
vn 0.08504 -0.996168 0.020434
vn -0.172225 -0.9513159 0.25561
vn -0.167018 -0.9859501 -0.002751
vn -0.165796 -0.85276 0.49529
vn -0.297326 -0.8144441 0.4982751
vn -0.3664709 -0.8898488 0.271787
vn -0.4131822 -0.9102464 0.02705701
vn -0.4907942 -0.8133763 0.3123141
vn -0.572028 -0.8167622 0.07538801
vn -0.527913 -0.780277 0.335374
vn -0.4040689 -0.7321488 0.5483488
vn -0.378908 -0.7590459 0.5294129
vn -0.6184831 -0.779242 0.101295
vn -0.008766997 0.9280298 0.3724029
vn -0.02074499 0.9151497 0.4025799
vn -0.02074499 0.9151497 0.4025799
vn -0.008766997 0.9280298 0.3724029
vn 0.04202401 0.9316611 0.36089
vn 0.04202401 0.9316611 0.36089
vn 0.080032 0.9266909 0.367204
vn -0.07217298 0.9018508 0.4259769
vn -0.07217298 0.9018508 0.4259769
vn -0.101952 0.8765843 0.4703251
vn -0.101952 0.8765843 0.4703251
vn -0.003502999 0.8570647 0.5151969
vn -0.003502999 0.8570647 0.5151969
vn 0.043585 0.8535029 0.519262
vn 0.043585 0.8535029 0.519262
vn 0.03604201 0.8848802 0.4644222
vn 0.03604201 0.8848802 0.4644222
vn 0.05740796 0.9089994 0.4128247
vn 0.05740796 0.9089994 0.4128247
vn -0.130495 -0.8818521 0.4531091
vn -0.3362809 -0.8753558 0.3473719
vn -0.363139 -0.891917 0.26947
vn -0.143277 -0.8906502 0.4315251
vn -0.331007 -0.8537961 0.401829
vn -0.140265 -0.8671808 0.4778318
vn 0.08199994 -0.8411915 0.5344837
vn 0.05642198 -0.8438498 0.5336049
vn 0.08735802 -0.8229023 0.5614272
vn -0.148912 -0.905809 0.396655
vn -0.358169 -0.9132769 0.194011
vn -0.103723 -0.9373643 0.3325501
vn 0.06950903 -0.8398644 0.5383273
vn 0.07265898 -0.8216097 0.5654008
vn 0.07662898 -0.8495468 0.5219179
vn -0.005488002 -0.9579834 0.2867711
vn -0.268878 -0.9580818 0.09891299
vn -0.08777705 -0.9957305 0.02856601
vn 0.17335 -0.9492959 0.262273
vn 0.1703971 -0.9853663 0.004235001
vn 0.164632 -0.8496519 0.5009869
vn 0.2951729 -0.8139576 0.5003458
vn 0.3676949 -0.8890087 0.2728809
vn 0.4173779 -0.9083307 0.02703599
vn 0.4916061 -0.8135461 0.3105901
vn 0.5731203 -0.8163255 0.07173504
vn 0.5290251 -0.780152 0.333909
vn 0.4040989 -0.7321218 0.5483629
vn 0.3789259 -0.7590357 0.5294148
vn 0.6201348 -0.7783318 0.09814497
vn 0.006784 0.930152 0.367112
vn 0.006784 0.930152 0.367112
vn 0.02128401 0.9160622 0.4004711
vn 0.02128401 0.9160622 0.4004711
vn -0.05060498 0.9331968 0.3557849
vn -0.05060498 0.9331968 0.3557849
vn -0.09262005 0.9269805 0.3634952
vn 0.07110702 0.9023461 0.425106
vn 0.07110702 0.9023461 0.425106
vn 0.101763 0.8775489 0.468564
vn 0.101763 0.8775489 0.468564
vn 0.003251001 0.8584743 0.5128462
vn 0.003251001 0.8584743 0.5128462
vn -0.046019 0.856043 0.514852
vn -0.046019 0.856043 0.514852
vn -0.035875 0.887556 0.459301
vn -0.035875 0.887556 0.459301
vn -0.05497598 0.9110147 0.4086929
vn -0.05497598 0.9110147 0.4086929
g Eyelashes_0
f 3/3/3 2/2/2 1/1/1
f 4/4/4 3/3/3 1/1/1
f 4/4/4 1/1/1 5/5/5
f 1/1/1 6/6/6 5/5/5
f 1/1/1 7/7/7 6/6/6
f 1/1/1 2/2/2 7/7/7
f 7/7/7 8/8/8 6/6/6
f 2/2/2 9/9/9 7/7/7
f 10/10/10 9/9/9 2/2/2
f 11/11/11 10/10/10 2/2/2
f 11/11/11 2/2/2 3/3/3
f 12/12/12 10/10/10 11/11/11
f 13/13/13 12/12/12 11/11/11
f 14/14/14 12/12/12 13/13/13
f 15/15/15 14/14/14 13/13/13
f 13/13/13 11/11/11 16/16/16
f 16/16/16 11/11/11 3/3/3
f 17/17/17 13/13/13 16/16/16
f 15/15/15 13/13/13 17/17/17
f 18/18/18 15/15/15 17/17/17
f 19/19/19 15/15/15 18/18/18
f 14/14/14 15/15/15 19/19/19
f 20/20/20 19/19/19 18/18/18
f 21/21/21 14/14/14 19/19/19
f 22/22/22 21/21/21 19/19/19
f 23/23/23 22/22/22 19/19/19
f 23/23/23 19/19/19 20/20/20
f 24/24/24 23/23/23 20/20/20
f 25/25/25 23/23/23 24/24/24
f 26/26/26 25/25/25 24/24/24
f 27/27/27 25/25/25 26/26/26
f 27/27/27 28/28/28 25/25/25
f 28/28/28 29/29/29 25/25/25
f 29/29/29 22/22/22 23/23/23
f 25/25/25 29/29/29 23/23/23
f 30/30/30 27/27/27 26/26/26
f 33/33/33 32/32/32 31/31/31
f 34/34/34 33/33/33 31/31/31
f 35/35/35 34/34/34 31/31/31
f 36/36/36 35/35/35 31/31/31
f 37/37/37 35/35/35 36/36/36
f 33/33/33 38/38/38 32/32/32
f 38/38/38 39/39/39 32/32/32
f 38/38/38 40/40/40 39/39/39
f 40/40/40 41/41/41 39/39/39
f 41/41/41 40/40/40 42/42/42
f 40/40/40 43/43/43 42/42/42
f 43/43/43 44/44/44 42/42/42
f 44/44/44 45/45/45 42/42/42
f 44/44/44 46/46/46 45/45/45
f 46/46/46 47/47/47 45/45/45
f 46/46/46 48/48/48 47/47/47
f 48/48/48 49/49/49 47/47/47
f 52/52/52 51/51/51 50/50/50
f 53/53/53 52/52/52 50/50/50
f 50/50/50 51/51/51 54/54/54
f 55/55/55 50/50/50 54/54/54
f 56/56/56 50/50/50 55/55/55
f 53/53/53 50/50/50 56/56/56
f 57/57/57 56/56/56 55/55/55
f 58/58/58 53/53/53 56/56/56
f 53/53/53 59/59/59 52/52/52
f 59/59/59 60/60/60 52/52/52
f 59/59/59 61/61/61 60/60/60
f 62/62/62 61/61/61 59/59/59
f 63/63/63 62/62/62 59/59/59
f 63/63/63 59/59/59 53/53/53
f 58/58/58 63/63/63 53/53/53
f 62/62/62 64/64/64 61/61/61
f 64/64/64 65/65/65 61/61/61
f 61/61/61 66/66/66 60/60/60
f 61/61/61 65/65/65 66/66/66
f 65/65/65 67/67/67 66/66/66
f 65/65/65 68/68/68 67/67/67
f 65/65/65 64/64/64 68/68/68
f 68/68/68 69/69/69 67/67/67
f 64/64/64 70/70/70 68/68/68
f 70/70/70 71/71/71 68/68/68
f 71/71/71 72/72/72 68/68/68
f 68/68/68 72/72/72 69/69/69
f 72/72/72 73/73/73 69/69/69
f 72/72/72 74/74/74 73/73/73
f 74/74/74 75/75/75 73/73/73
f 74/74/74 76/76/76 75/75/75
f 77/77/77 76/76/76 74/74/74
f 78/78/78 77/77/77 74/74/74
f 78/78/78 74/74/74 72/72/72
f 71/71/71 78/78/78 72/72/72
f 76/76/76 79/79/79 75/75/75
f 82/82/82 81/81/81 80/80/80
f 83/83/83 82/82/82 80/80/80
f 81/81/81 84/84/84 80/80/80
f 84/84/84 85/85/85 80/80/80
f 84/84/84 86/86/86 85/85/85
f 87/87/87 82/82/82 83/83/83
f 88/88/88 87/87/87 83/83/83
f 89/89/89 87/87/87 88/88/88
f 90/90/90 89/89/89 88/88/88
f 89/89/89 90/90/90 91/91/91
f 92/92/92 89/89/89 91/91/91
f 93/93/93 92/92/92 91/91/91
f 94/94/94 93/93/93 91/91/91
f 95/95/95 93/93/93 94/94/94
f 96/96/96 95/95/95 94/94/94
f 97/97/97 95/95/95 96/96/96
f 98/98/98 97/97/97 96/96/96
