g Tube001
v -5.322596E-08 1.217668 -1.781
v 0.5283264 1.097081 -1.781
v 0.5283264 1.097081 1.781
v -5.322596E-08 1.217668 1.781
v 0.9520112 0.7592037 1.781
v 0.9520112 0.7592037 -1.781
v -0.5283266 1.097081 -1.781
v -0.5283266 1.097081 1.781
v -0.9520115 0.7592033 -1.781
v -0.9520115 0.7592033 1.781
v -5.322596E-08 1.217668 1.781
v 0.5283264 1.097081 1.781
v 0.4927227 1.023149 1.781
v -4.963908E-08 1.13561 1.781
v 0.8878556 0.7080412 1.781
v 0.9520112 0.7592037 1.781
v 1.107138 0.252697 1.781
v 1.187138 0.2709566 1.781
v 1.107138 -0.252697 1.781
v 1.187138 -0.2709566 1.781
v 0.8878555 -0.7080412 1.781
v 0.9520112 -0.7592036 1.781
v 0.4927227 -1.023149 1.781
v 0.5283264 -1.097081 1.781
v 8.573615E-08 -1.13561 1.781
v 9.193138E-08 -1.217668 1.781
v -0.4927225 -1.023149 1.781
v -0.5283262 -1.097081 1.781
v -0.8878554 -0.7080413 1.781
v -0.952011 -0.7592037 1.781
v -1.107138 -0.2526972 1.781
v -1.187138 -0.2709568 1.781
v -1.107138 0.2526967 1.781
v -1.187139 0.2709563 1.781
v -0.8878558 0.7080408 1.781
v -0.9520115 0.7592033 1.781
v -0.4927228 1.023149 1.781
v -0.5283266 1.097081 1.781
v -4.963908E-08 1.13561 1.781
v 0.4927227 1.023149 1.781
v 0.4927227 1.023149 -1.781
v -4.963908E-08 1.13561 -1.781
v 0.8878556 0.7080412 -1.781
v 0.8878556 0.7080412 1.781
v -0.4927228 1.023149 1.781
v -0.4927228 1.023149 -1.781
v -0.8878558 0.7080408 1.781
v -0.8878558 0.7080408 -1.781
v -4.963908E-08 1.13561 -1.781
v 0.4927227 1.023149 -1.781
v 0.5283264 1.097081 -1.781
v -5.322596E-08 1.217668 -1.781
v 0.9520112 0.7592037 -1.781
v 0.8878556 0.7080412 -1.781
v 1.187138 0.2709566 -1.781
v 1.107138 0.252697 -1.781
v 1.187138 -0.2709566 -1.781
v 1.107138 -0.252697 -1.781
v 0.9520112 -0.7592036 -1.781
v 0.8878555 -0.7080412 -1.781
v 0.5283264 -1.097081 -1.781
v 0.4927227 -1.023149 -1.781
v 9.193138E-08 -1.217668 -1.781
v 8.573615E-08 -1.13561 -1.781
v -0.5283262 -1.097081 -1.781
v -0.4927225 -1.023149 -1.781
v -0.952011 -0.7592037 -1.781
v -0.8878554 -0.7080413 -1.781
v -1.187138 -0.2709568 -1.781
v -1.107138 -0.2526972 -1.781
v -1.187139 0.2709563 -1.781
v -1.107138 0.2526967 -1.781
v -0.9520115 0.7592033 -1.781
v -0.8878558 0.7080408 -1.781
v -0.5283266 1.097081 -1.781
v -0.4927228 1.023149 -1.781
v 0.9520112 0.7592037 -1.781
v 1.187138 0.2709566 -1.781
v 1.187138 0.2709566 1.781
v 0.9520112 0.7592037 1.781
v 1.187138 -0.2709566 1.781
v 1.187138 -0.2709566 -1.781
v 0.9520112 -0.7592036 1.781
v 0.9520112 -0.7592036 -1.781
v 0.8878556 0.7080412 1.781
v 1.107138 0.252697 1.781
v 1.107138 0.252697 -1.781
v 0.8878556 0.7080412 -1.781
v 1.107138 -0.252697 -1.781
v 1.107138 -0.252697 1.781
v 0.8878555 -0.7080412 -1.781
v 0.8878555 -0.7080412 1.781
v 0.9520112 -0.7592036 -1.781
v 0.5283264 -1.097081 -1.781
v 0.5283264 -1.097081 1.781
v 0.9520112 -0.7592036 1.781
v 9.193138E-08 -1.217668 1.781
v 9.193138E-08 -1.217668 -1.781
v -0.5283262 -1.097081 1.781
v -0.5283262 -1.097081 -1.781
v -0.952011 -0.7592037 1.781
v -0.952011 -0.7592037 -1.781
v 0.8878555 -0.7080412 1.781
v 0.4927227 -1.023149 1.781
v 0.4927227 -1.023149 -1.781
v 0.8878555 -0.7080412 -1.781
v 8.573615E-08 -1.13561 -1.781
v 8.573615E-08 -1.13561 1.781
v -0.4927225 -1.023149 -1.781
v -0.4927225 -1.023149 1.781
v -0.8878554 -0.7080413 -1.781
v -0.8878554 -0.7080413 1.781
v -0.952011 -0.7592037 -1.781
v -1.187138 -0.2709568 -1.781
v -1.187138 -0.2709568 1.781
v -0.952011 -0.7592037 1.781
v -1.187139 0.2709563 1.781
v -1.187139 0.2709563 -1.781
v -0.9520115 0.7592033 1.781
v -0.9520115 0.7592033 -1.781
v -0.8878554 -0.7080413 1.781
v -1.107138 -0.2526972 1.781
v -1.107138 -0.2526972 -1.781
v -0.8878554 -0.7080413 -1.781
v -1.107138 0.2526967 -1.781
v -1.107138 0.2526967 1.781
v -0.8878558 0.7080408 -1.781
v -0.8878558 0.7080408 1.781
vt 0.4999995 -3.062
vt -0.5566533 -3.062
vt -0.5566533 4.062
vt 0.4999995 4.062
vt -1.404023 4.062
vt -1.404023 -3.062
vt 1.556653 -3.062
vt 1.556653 4.062
vt 2.404023 -3.062
vt 2.404023 4.062
vt 0.5000005 2.935336
vt 1.556653 2.694162
vt 1.485446 2.546298
vt 0.5000004 2.77122
vt 2.275712 1.916082
vt 2.404023 2.018407
vt 2.714276 1.005393
vt 2.874277 1.041913
vt 2.714275 -0.005394518
vt 2.874277 -0.04191387
vt 2.275711 -0.916083
vt 2.404022 -1.018408
vt 1.485445 -1.546298
vt 1.556652 -1.694162
vt 0.4999996 -1.77122
vt 0.4999996 -1.935336
vt -0.4854454 -1.546298
vt -0.5566528 -1.694162
vt -1.275711 -0.9160823
vt -1.404022 -1.018407
vt -1.714276 -0.005393922
vt -1.874277 -0.04191327
vt -1.714275 1.005394
vt -1.874277 1.041913
vt -1.275711 1.916082
vt -1.404023 2.018407
vt -0.4854452 2.546298
vt -0.5566527 2.694162
vt 0.5000004 4.062
vt 1.485446 4.062
vt 1.485446 -3.062
vt 0.5000004 -3.062
vt 2.275712 -3.062
vt 2.275712 4.062
vt -0.4854452 4.062
vt -0.4854452 -3.062
vt -1.275711 4.062
vt -1.275711 -3.062
vt 0.4999996 2.77122
vt -0.4854459 2.546298
vt -0.5566533 2.694162
vt 0.4999995 2.935336
vt -1.404023 2.018407
vt -1.275712 1.916082
vt -1.874277 1.041913
vt -1.714276 1.005393
vt -1.874277 -0.04191387
vt -1.714275 -0.005394518
vt -1.404022 -1.018408
vt -1.275711 -0.916083
vt -0.5566523 -1.694162
vt -0.4854449 -1.546298
vt 0.5000004 -1.935336
vt 0.5000004 -1.77122
vt 1.556653 -1.694162
vt 1.485445 -1.546298
vt 2.404022 -1.018407
vt 2.275711 -0.9160823
vt 2.874277 -0.04191327
vt 2.714276 -0.005393922
vt 2.874277 1.041913
vt 2.714275 1.005394
vt 2.404023 2.018407
vt 2.275711 1.916082
vt 1.556653 2.694162
vt 1.485445 2.546298
vt 2.018407 -3.062
vt 1.041913 -3.062
vt 1.041913 4.062
vt 2.018407 4.062
vt -0.04191387 4.062
vt -0.04191387 -3.062
vt -1.018408 4.062
vt -1.018408 -3.062
vt -0.9160818 4.062
vt -0.005393267 4.062
vt -0.005393267 -3.062
vt -0.9160818 -3.062
vt 1.005394 -3.062
vt 1.005394 4.062
vt 1.916083 -3.062
vt 1.916083 4.062
vt 2.404022 -3.062
vt 1.556652 -3.062
vt 1.556652 4.062
vt 2.404022 4.062
vt 0.4999996 4.062
vt 0.4999996 -3.062
vt -0.5566528 4.062
vt -0.5566528 -3.062
vt -1.404022 4.062
vt -1.404022 -3.062
vt -1.275711 4.062
vt -0.4854449 4.062
vt -0.4854449 -3.062
vt -1.275711 -3.062
vt 0.5000004 -3.062
vt 0.5000004 4.062
vt 1.485445 -3.062
vt 1.485445 4.062
vt 2.275711 -3.062
vt 2.275711 4.062
vt 2.018407 -3.062
vt 1.041913 -3.062
vt 1.041913 4.062
vt 2.018407 4.062
vt -0.04191303 4.062
vt -0.04191303 -3.062
vt -1.018407 4.062
vt -1.018407 -3.062
vt -0.9160823 4.062
vt -0.005393922 4.062
vt -0.005393922 -3.062
vt -0.9160823 -3.062
vt 1.005394 -3.062
vt 1.005394 4.062
vt 1.916082 -3.062
vt 1.916082 4.062
vn 0 1 0
vn 0.4338837 0.9009689 0
vn 0.4338837 0.9009689 0
vn 0 1 0
vn 0.7818316 0.6234897 0
vn 0.7818316 0.6234897 0
vn -0.4338839 0.9009688 0
vn -0.4338839 0.9009688 0
vn -0.7818317 0.6234895 0
vn -0.7818317 0.6234895 0
vn 0 0 1
vn 0 0 1
vn 0 0 1
vn 0 0 1
vn 0 0 1
vn 0 0 1
vn 0 0 1
vn 0 0 1
vn 0 0 1
vn 0 0 1
vn 0 0 1
vn 0 0 1
vn 0 0 1
vn 0 0 1
vn 0 0 1
vn 0 0 1
vn 0 0 1
vn 0 0 1
vn 0 0 1
vn 0 0 1
vn 0 0 1
vn 0 0 1
vn 0 0 1
vn 0 0 1
vn 0 0 1
vn 0 0 1
vn 0 0 1
vn 0 0 1
vn 0 -1 0
vn -0.4338837 -0.9009689 0
vn -0.4338837 -0.9009689 0
vn 0 -1 0
vn -0.7818316 -0.6234897 0
vn -0.7818316 -0.6234897 0
vn 0.4338839 -0.9009688 0
vn 0.4338839 -0.9009688 0
vn 0.7818317 -0.6234895 0
vn 0.7818317 -0.6234895 0
vn 0 0 -1
vn 0 0 -1
vn 0 0 -1
vn 0 0 -1
vn 0 0 -1
vn 0 0 -1
vn 0 0 -1
vn 0 0 -1
vn 0 0 -1
vn 0 0 -1
vn 0 0 -1
vn 0 0 -1
vn 0 0 -1
vn 0 0 -1
vn 0 0 -1
vn 0 0 -1
vn 0 0 -1
vn 0 0 -1
vn 0 0 -1
vn 0 0 -1
vn 0 0 -1
vn 0 0 -1
vn 0 0 -1
vn 0 0 -1
vn 0 0 -1
vn 0 0 -1
vn 0 0 -1
vn 0 0 -1
vn 0.7818316 0.6234897 0
vn 0.9749279 0.2225209 0
vn 0.9749279 0.2225209 0
vn 0.7818316 0.6234897 0
vn 0.9749279 -0.2225209 0
vn 0.9749279 -0.2225209 0
vn 0.7818316 -0.6234897 0
vn 0.7818316 -0.6234897 0
vn -0.7818316 -0.6234897 0
vn -0.9749279 -0.2225209 0
vn -0.9749279 -0.2225209 0
vn -0.7818316 -0.6234897 0
vn -0.9749279 0.222521 0
vn -0.9749279 0.222521 0
vn -0.7818314 0.6234899 0
vn -0.7818314 0.6234899 0
vn 0.7818316 -0.6234897 0
vn 0.4338837 -0.9009688 0
vn 0.4338837 -0.9009688 0
vn 0.7818316 -0.6234897 0
vn 0 -1 0
vn 0 -1 0
vn -0.4338836 -0.9009689 0
vn -0.4338836 -0.9009689 0
vn -0.7818313 -0.62349 0
vn -0.7818313 -0.62349 0
vn -0.7818314 0.6234899 0
vn -0.4338837 0.9009689 0
vn -0.4338837 0.9009689 0
vn -0.7818314 0.6234899 0
vn 0 1 0
vn 0 1 0
vn 0.4338835 0.900969 0
vn 0.4338835 0.900969 0
vn 0.7818313 0.62349 0
vn 0.7818313 0.62349 0
vn -0.7818313 -0.62349 0
vn -0.9749278 -0.2225211 0
vn -0.9749278 -0.2225211 0
vn -0.7818313 -0.62349 0
vn -0.974928 0.2225207 0
vn -0.974928 0.2225207 0
vn -0.7818317 0.6234895 0
vn -0.7818317 0.6234895 0
vn 0.7818313 0.62349 0
vn 0.9749278 0.2225211 0
vn 0.9749278 0.2225211 0
vn 0.7818313 0.62349 0
vn 0.974928 -0.2225206 0
vn 0.974928 -0.2225206 0
vn 0.7818317 -0.6234895 0
vn 0.7818317 -0.6234895 0
g Tube001_0
f 3/3/3 2/2/2 1/1/1
f 4/4/4 3/3/3 1/1/1
f 3/3/3 5/5/5 2/2/2
f 5/5/5 6/6/6 2/2/2
f 4/4/4 1/1/1 7/7/7
f 8/8/8 4/4/4 7/7/7
f 8/8/8 7/7/7 9/9/9
f 10/10/10 8/8/8 9/9/9
f 13/13/13 12/12/12 11/11/11
f 14/14/14 13/13/13 11/11/11
f 13/13/13 15/15/15 12/12/12
f 15/15/15 16/16/16 12/12/12
f 15/15/15 17/17/17 16/16/16
f 17/17/17 18/18/18 16/16/16
f 17/17/17 19/19/19 18/18/18
f 19/19/19 20/20/20 18/18/18
f 19/19/19 21/21/21 20/20/20
f 21/21/21 22/22/22 20/20/20
f 21/21/21 23/23/23 22/22/22
f 23/23/23 24/24/24 22/22/22
f 23/23/23 25/25/25 24/24/24
f 25/25/25 26/26/26 24/24/24
f 25/25/25 27/27/27 26/26/26
f 27/27/27 28/28/28 26/26/26
f 27/27/27 29/29/29 28/28/28
f 29/29/29 30/30/30 28/28/28
f 29/29/29 31/31/31 30/30/30
f 31/31/31 32/32/32 30/30/30
f 31/31/31 33/33/33 32/32/32
f 33/33/33 34/34/34 32/32/32
f 33/33/33 35/35/35 34/34/34
f 35/35/35 36/36/36 34/34/34
f 35/35/35 37/37/37 36/36/36
f 37/37/37 38/38/38 36/36/36
f 37/37/37 14/14/14 38/38/38
f 14/14/14 11/11/11 38/38/38
f 41/41/41 40/40/40 39/39/39
f 42/42/42 41/41/41 39/39/39
f 41/41/41 43/43/43 40/40/40
f 43/43/43 44/44/44 40/40/40
f 42/42/42 39/39/39 45/45/45
f 46/46/46 42/42/42 45/45/45
f 46/46/46 45/45/45 47/47/47
f 48/48/48 46/46/46 47/47/47
f 51/51/51 50/50/50 49/49/49
f 52/52/52 51/51/51 49/49/49
f 51/51/51 53/53/53 50/50/50
f 53/53/53 54/54/54 50/50/50
f 53/53/53 55/55/55 54/54/54
f 55/55/55 56/56/56 54/54/54
f 55/55/55 57/57/57 56/56/56
f 57/57/57 58/58/58 56/56/56
f 57/57/57 59/59/59 58/58/58
f 59/59/59 60/60/60 58/58/58
f 59/59/59 61/61/61 60/60/60
f 61/61/61 62/62/62 60/60/60
f 61/61/61 63/63/63 62/62/62
f 63/63/63 64/64/64 62/62/62
f 63/63/63 65/65/65 64/64/64
f 65/65/65 66/66/66 64/64/64
f 65/65/65 67/67/67 66/66/66
f 67/67/67 68/68/68 66/66/66
f 67/67/67 69/69/69 68/68/68
f 69/69/69 70/70/70 68/68/68
f 69/69/69 71/71/71 70/70/70
f 71/71/71 72/72/72 70/70/70
f 71/71/71 73/73/73 72/72/72
f 73/73/73 74/74/74 72/72/72
f 73/73/73 75/75/75 74/74/74
f 75/75/75 76/76/76 74/74/74
f 75/75/75 52/52/52 76/76/76
f 52/52/52 49/49/49 76/76/76
f 79/79/79 78/78/78 77/77/77
f 80/80/80 79/79/79 77/77/77
f 79/79/79 81/81/81 78/78/78
f 81/81/81 82/82/82 78/78/78
f 81/81/81 83/83/83 82/82/82
f 83/83/83 84/84/84 82/82/82
f 87/87/87 86/86/86 85/85/85
f 88/88/88 87/87/87 85/85/85
f 87/87/87 89/89/89 86/86/86
f 89/89/89 90/90/90 86/86/86
f 89/89/89 91/91/91 90/90/90
f 91/91/91 92/92/92 90/90/90
f 95/95/95 94/94/94 93/93/93
f 96/96/96 95/95/95 93/93/93
f 95/95/95 97/97/97 94/94/94
f 97/97/97 98/98/98 94/94/94
f 97/97/97 99/99/99 98/98/98
f 99/99/99 100/100/100 98/98/98
f 99/99/99 101/101/101 100/100/100
f 101/101/101 102/102/102 100/100/100
f 105/105/105 104/104/104 103/103/103
f 106/106/106 105/105/105 103/103/103
f 105/105/105 107/107/107 104/104/104
f 107/107/107 108/108/108 104/104/104
f 107/107/107 109/109/109 108/108/108
f 109/109/109 110/110/110 108/108/108
f 109/109/109 111/111/111 110/110/110
f 111/111/111 112/112/112 110/110/110
f 115/115/115 114/114/114 113/113/113
f 116/116/116 115/115/115 113/113/113
f 115/115/115 117/117/117 114/114/114
f 117/117/117 118/118/118 114/114/114
f 117/117/117 119/119/119 118/118/118
f 119/119/119 120/120/120 118/118/118
f 123/123/123 122/122/122 121/121/121
f 124/124/124 123/123/123 121/121/121
f 123/123/123 125/125/125 122/122/122
f 125/125/125 126/126/126 122/122/122
f 125/125/125 127/127/127 126/126/126
f 127/127/127 128/128/128 126/126/126
